<svg xmlns="http://www.w3.org/2000/svg" xmlns:xlink="http://www.w3.org/1999/xlink" id="Layer_1" x="0px" y="0px" viewBox="0 0 349.49 174.17" style="enable-background:new 0 0 349.49 174.17;" xml:space="preserve"><style type="text/css">	.st0{fill:#E52521;}	.st1{fill:#C51618;}	.st2{fill:#FDC423;}	.st3{fill:#0081BC;}	.st4{fill:#003671;}	.st5{fill:#0FA457;}</style><g>	<g>		<g>			<polygon class="st0" points="35.82,63.15 35.82,65.47 90.5,115.23 90.5,109.36 90.5,89.19    "></polygon>			<polyline class="st1" points="90.5,115.23 145.18,65.47 145.18,63.15 90.5,89.19 90.5,115.23    "></polyline>		</g>		<g>			<polygon class="st3" points="137.85,78.76 137.85,133.73 92.45,133.73 92.49,119.98    "></polygon>			<polygon class="st4" points="43.15,40.44 137.85,40.44 137.85,61.76 90.55,83.09 43.15,61.76    "></polygon>			<polygon class="st5" points="43.15,78.8 43.15,133.73 88.57,133.73 88.61,119.98    "></polygon>		</g>	</g>	<g>		<path class="st4" d="M168.82,81.52c1.24,0.3,2.51,0.57,3.81,0.82c1.3,0.25,2.94,0.37,4.91,0.37c1.47,0,2.75-0.16,3.85-0.48   c1.1-0.32,2.03-0.85,2.8-1.59c0.76-0.74,1.34-1.73,1.74-2.97c0.39-1.24,0.59-2.77,0.59-4.6V40.44h15.84v32.33   c0,3.26-0.4,6.2-1.19,8.82c-0.79,2.62-2.06,4.85-3.81,6.67c-1.75,1.83-4.05,3.24-6.9,4.23c-2.85,0.99-6.34,1.48-10.46,1.48   c-2.54,0-5.03-0.17-7.45-0.52c-2.43-0.35-4.55-0.82-6.35-1.41L168.82,81.52z"></path>		<path class="st4" d="M241.83,81.37h-17.11l-3.81,11.86h-15.08l19.14-52.8H242l19.74,52.8h-16.09L241.83,81.37z M227.35,70.91   h11.86l-5.84-17.57L227.35,70.91z"></path>		<path class="st4" d="M295.91,51.41h-27.82V40.44h45.57v8.97l-27.7,32.85h27.7v10.98h-45.65v-8.97L295.91,51.41z"></path>		<path class="st4" d="M179.81,128.1V107h5.48c2.11,0,3.73,0.4,4.85,1.2c1.13,0.8,1.69,1.95,1.69,3.45c0,2.56-1.45,4.38-4.33,5.46   c3.45,1.05,5.18,2.96,5.18,5.72c0,1.71-0.57,3.02-1.71,3.92c-1.14,0.9-2.79,1.35-4.93,1.35H179.81z M182.77,116.27h0.96   c1.6,0,2.83-0.34,3.71-1.03c0.88-0.68,1.32-1.65,1.32-2.89c0-2.07-1.61-3.11-4.82-3.11h-1.17V116.27z M182.77,125.86h0.61   c2.2,0,3.62-0.14,4.26-0.41c1.24-0.52,1.85-1.49,1.85-2.91c0-1.25-0.56-2.3-1.68-3.13c-1.12-0.83-2.52-1.25-4.21-1.25h-0.84   V125.86z"></path>		<path class="st4" d="M209.05,126.13c-1.68,1.55-3.3,2.32-4.86,2.32c-1.28,0-2.35-0.4-3.19-1.2c-0.85-0.8-1.27-1.82-1.27-3.04   c0-1.69,0.71-2.99,2.13-3.9c1.42-0.91,3.46-1.36,6.11-1.36h0.67v-1.87c0-1.8-0.92-2.69-2.77-2.69c-1.48,0-3.08,0.46-4.8,1.37   v-2.32c1.89-0.77,3.66-1.15,5.32-1.15c1.73,0,3.01,0.39,3.83,1.17c0.82,0.78,1.23,1.99,1.23,3.64v7.01c0,1.61,0.49,2.41,1.48,2.41   c0.12,0,0.3-0.02,0.54-0.06l0.2,1.55c-0.64,0.3-1.34,0.46-2.11,0.46C210.25,128.46,209.41,127.68,209.05,126.13z M208.64,124.61   v-4.01l-0.94-0.03c-1.54,0-2.79,0.29-3.74,0.88c-0.95,0.58-1.43,1.35-1.43,2.3c0,0.67,0.24,1.25,0.71,1.71   c0.48,0.47,1.05,0.7,1.74,0.7C206.16,126.16,207.37,125.64,208.64,124.61z"></path>		<path class="st4" d="M226.22,128.46c-1.43,0-2.54-0.41-3.34-1.23c-0.8-0.82-1.2-1.95-1.2-3.41v-9.1h-1.94v-2.11h1.94v-2.81   l2.81-0.27v3.08h4.05v2.11h-4.05v8.58c0,2.02,0.87,3.04,2.62,3.04c0.37,0,0.82-0.06,1.35-0.19v1.94   C227.61,128.34,226.86,128.46,226.22,128.46z"></path>		<path class="st4" d="M241.52,128.46c-1.43,0-2.54-0.41-3.34-1.23c-0.8-0.82-1.2-1.95-1.2-3.41v-9.1h-1.94v-2.11h1.94v-2.81   l2.81-0.27v3.08h4.05v2.11h-4.05v8.58c0,2.02,0.87,3.04,2.62,3.04c0.37,0,0.82-0.06,1.35-0.19v1.94   C242.91,128.34,242.16,128.46,241.52,128.46z"></path>		<path class="st4" d="M263.53,127.6c-1.88,0.57-3.49,0.86-4.83,0.86c-2.28,0-4.14-0.76-5.58-2.27c-1.44-1.52-2.16-3.48-2.16-5.9   c0-2.35,0.63-4.27,1.9-5.77c1.27-1.5,2.89-2.25,4.87-2.25c1.87,0,3.32,0.67,4.34,2c1.02,1.33,1.53,3.22,1.53,5.67l-0.01,0.87   h-9.77c0.41,3.68,2.21,5.52,5.4,5.52c1.17,0,2.6-0.31,4.31-0.94V127.6z M253.94,118.69h6.83c0-2.88-1.07-4.32-3.22-4.32   C255.39,114.37,254.19,115.81,253.94,118.69z"></path>		<path class="st4" d="M272.82,128.1v-15.48h2.81v2.91c1.11-2.17,2.73-3.25,4.85-3.25c0.29,0,0.58,0.02,0.9,0.07v2.62   c-0.48-0.16-0.91-0.24-1.28-0.24c-1.78,0-3.27,1.05-4.46,3.17v10.21H272.82z"></path>		<path class="st4" d="M290.05,133.73l2.51-5.63l-5.99-15.48h3.04l4.43,11.66l4.73-11.66h2.65l-8.45,21.12H290.05z"></path>	</g></g></svg>