<svg version="1.1" id="Слой_1" xmlns="http://www.w3.org/2000/svg" x="0" y="0" viewBox="0 0 161.1 119.5" xml:space="preserve"><path fill-rule="evenodd" clip-rule="evenodd" fill="#2B2A29" d="M0 117c0 1.4 1 2.2 2.1 2.2s2-.8 2-2.2v-12.2l10.5 13.3c.9.9 1.5 1.1 2.6 1.1.8-.3 1.7-.8 1.7-2.2V99.2c0-1-1.1-2.2-2.2-2.2s-2 1.1-2 2.2v12.2l-10.6-13c-.9-.8-1.1-1.1-2.2-1.1-1.6 0-1.9 1.1-1.9 2.2V117zm40.4-5c1 1.4 2.5 1.4 3.6 0l5.2-6.6V117c0 1.4.9 2.2 2 2.2 1 0 1.9-.8 1.9-2.2V99.2c0-2.2-2.6-2.7-3.6-1.4l-7.2 9.7-6.9-9.4c-.5-.6-1.1-1.1-2-1.1-.5 0-1.9.5-1.9 2.2V117c0 1.4.9 2.2 1.9 2.2 1.1 0 2.3-.8 2.3-2.2v-11.7l4.7 6.7zm30.9 7.2c3.1 0 2.9-4.1 0-4.1h-9.6v-4.7h8c2.8 0 2.8-4.1 0-4.1h-8v-4.7h9.1c2.8 0 2.9-4.1 0-4.1H59.5c-1.1 0-2 .8-2 2v17.9c0 1.1.9 2 2 2l11.8-.2zm15.1-18c8.9 0 8.5 14.1 0 14.1h-5.2v-14.1h5.2zm.2 18c13.8 0 14.1-21.8-.3-21.8h-7.2c-1 0-2.2.8-2.2 2v17.9c0 1.4 1.1 2 2.2 2l7.5-.1zm36.6-11.1c0-7.5-5.8-11.3-11.3-11.6-5.8 0-11.9 3.8-11.9 11.6 0 7.7 6.1 11.6 11.9 11.4 5.5 0 11.3-3.9 11.3-11.4zm-4.1 0c0 5-3.9 7.5-7.5 7.5-3.5 0-7.4-2.5-7.4-7.5s3.9-7.5 7.4-7.5c3.6.1 7.5 2.5 7.5 7.5zm19.3 9.7l8.1-17.6c1.1-2.6-2.6-4.1-3.9-1.7l-2.8 6.3-3.6 8.3-3.6-8.3-2.8-6.3c-1.4-2.6-5.1-.6-3.9 1.9l8.3 17.5c1.2 2.3 3.4 1.9 4.2-.1zM22.1 98.4c-1.1 1.9 2.2 3.6 3.2 1.8l2.7-4.8c1-1.7-2.2-3.5-3.2-1.8l-2.7 4.8z"/><path fill-rule="evenodd" clip-rule="evenodd" fill="#C22D22" d="M125.7 0c-13.2 0-26.4.1-39.6.1-43.4-.2-43.8 45.4-74.7 61.4h36.3c54.8 0 46.7-48.9 78-61.5z"/><linearGradient id="logo-id-1" gradientUnits="userSpaceOnUse" x1="994.592" y1="-1008.368" x2="994.592" y2="-1254.518" gradientTransform="matrix(.2524 0 0 -.2524 -161.477 -239.613)"><stop offset="0" stop-color="#fff167"/><stop offset="1" stop-color="#fbba00"/></linearGradient><path fill-rule="evenodd" clip-rule="evenodd" fill="url(#logo-id-1)" d="M161.1 15.6c-9.8 0-35.6.1-53.6.1C96.2 32 90.1 54.1 62.9 60c27.2-5.9 33.3-27.9 44.6-44.3H92.8c-33-.1-41.2 26.1-56.7 45.8-4.9 6.2-10.6 11.8-18 15.6H83c54.8 0 46.7-48.9 78.1-61.5z"/><linearGradient id="logo-id-2" gradientUnits="userSpaceOnUse" x1="924.097" y1="-1009.288" x2="924.097" y2="-1192.718" gradientTransform="matrix(.2524 0 0 -.2524 -161.477 -239.613)"><stop offset="0" stop-color="#e6a51e"/><stop offset=".29" stop-color="#e28e1d"/><stop offset="1" stop-color="#dd761c"/></linearGradient><path fill-rule="evenodd" clip-rule="evenodd" fill="url(#logo-id-2)" d="M36.1 61.5h11.6c40.6 0 46.6-26.8 59.8-45.8H92.8c-33-.2-41.2 26.1-56.7 45.8z"/></svg>