<svg width="173" height="25" viewBox="0 0 173 25" fill="none" xmlns="http://www.w3.org/2000/svg">
<path d="M5.72552 25L0 9.01639H2.4538V10.5874H3.95334L7.49771 20.6967L12.4053 5.6694H9.88335L16.086 0L17.9945 8.06011L15.6089 6.55738L9.06541 25H5.72552Z" fill="#FF0000"/>
<path d="M2.88461 9.75282V7.69238H4.94504V9.75282H2.88461Z" fill="#FF0303"/>
<path d="M31.5327 8.51172L29.4014 16.7808C29.1816 17.6401 28.896 18.2554 28.5444 18.6265C28.1978 18.9976 27.7339 19.1831 27.1528 19.1831C26.5718 19.1831 26.103 18.9976 25.7466 18.6265C25.395 18.2505 25.1094 17.6353 24.8896 16.7808L22.7583 8.51172H25.373L26.7646 14.0781C26.8184 14.2832 26.877 14.5469 26.9404 14.8691C27.0088 15.1865 27.0796 15.543 27.1528 15.9385C27.2505 15.4258 27.3262 15.0278 27.3799 14.7446C27.4385 14.4565 27.4873 14.2344 27.5264 14.0781L28.9253 8.51172H31.5327ZM38.52 19H38.249C37.3359 19 36.5376 18.9268 35.854 18.7803C35.1704 18.6338 34.5942 18.4116 34.1255 18.1138C33.3589 17.6206 32.7656 16.9956 32.3457 16.2388C31.9307 15.4819 31.7231 14.6519 31.7231 13.7485C31.7231 12.8452 31.9307 12.0176 32.3457 11.2656C32.7607 10.5137 33.354 9.89111 34.1255 9.39795C34.5942 9.1001 35.1704 8.87793 35.854 8.73145C36.5376 8.58496 37.3359 8.51172 38.249 8.51172H38.52V10.8994C38.4517 10.8945 38.3784 10.8921 38.3003 10.8921C38.2271 10.8872 38.1196 10.8848 37.978 10.8848C37.0601 10.8848 36.3301 11.019 35.7881 11.2876C35.2461 11.5562 34.8579 11.9712 34.6235 12.5327H38.52V14.8765H34.5723C34.748 15.4526 35.124 15.8872 35.7002 16.1802C36.2764 16.4683 37.0527 16.6123 38.0293 16.6123C38.1611 16.6123 38.2612 16.6123 38.3296 16.6123C38.4028 16.6074 38.4663 16.605 38.52 16.605V19ZM46.3716 10.9727C46.3032 10.9678 46.2275 10.9653 46.1445 10.9653C46.0664 10.9604 45.9468 10.958 45.7856 10.958C44.6431 10.958 43.7666 11.1997 43.1562 11.6831C42.5508 12.1616 42.248 12.8501 42.248 13.7485C42.248 14.6567 42.5508 15.3525 43.1562 15.8359C43.7666 16.3145 44.6431 16.5537 45.7856 16.5537C45.9468 16.5537 46.0688 16.5537 46.1519 16.5537C46.2349 16.5488 46.3081 16.5464 46.3716 16.5464V19H46.1006C45.1875 19 44.3892 18.9268 43.7056 18.7803C43.022 18.6338 42.4458 18.4116 41.9771 18.1138C41.2104 17.6206 40.6172 16.9956 40.1973 16.2388C39.7822 15.4819 39.5747 14.6519 39.5747 13.7485C39.5747 12.8452 39.7822 12.0176 40.1973 11.2656C40.6123 10.5137 41.2056 9.89111 41.9771 9.39795C42.4458 9.1001 43.022 8.87793 43.7056 8.73145C44.3892 8.58496 45.1875 8.51172 46.1006 8.51172H46.3716V10.9727ZM51.8135 10.958V19H49.2061V10.958H46.9575V8.51172H54.062V10.958H51.8135ZM57.3359 13.7339C57.3359 14.52 57.6021 15.189 58.1343 15.7407C58.6665 16.2925 59.3062 16.5684 60.0532 16.5684C60.8003 16.5684 61.4351 16.2949 61.9575 15.748C62.4849 15.1963 62.7485 14.5249 62.7485 13.7339C62.7485 12.9429 62.4873 12.2764 61.9648 11.7344C61.4424 11.1875 60.8052 10.9141 60.0532 10.9141C59.2964 10.9141 58.6543 11.1875 58.127 11.7344C57.5996 12.2812 57.3359 12.9478 57.3359 13.7339ZM54.6626 13.7485C54.6626 13.021 54.7969 12.3325 55.0654 11.6831C55.3389 11.0288 55.7344 10.438 56.252 9.91064C56.7646 9.39795 57.3457 9.00732 57.9951 8.73877C58.6445 8.47021 59.3306 8.33594 60.0532 8.33594C60.7759 8.33594 61.4644 8.47266 62.1187 8.74609C62.7729 9.01953 63.354 9.4126 63.8618 9.92529C64.3647 10.4331 64.7505 11.0142 65.019 11.6685C65.2876 12.3228 65.4219 13.0161 65.4219 13.7485C65.4219 14.4858 65.2876 15.1841 65.019 15.8433C64.7505 16.5024 64.3647 17.0835 63.8618 17.5864C63.354 18.104 62.7729 18.4995 62.1187 18.7729C61.4644 19.0464 60.7759 19.1831 60.0532 19.1831C59.3354 19.1831 58.6519 19.0464 58.0024 18.7729C57.353 18.4995 56.7695 18.104 56.252 17.5864C55.7344 17.0591 55.3389 16.4707 55.0654 15.8213C54.7969 15.1719 54.6626 14.481 54.6626 13.7485ZM66.5352 18.9854V12.1299C66.5352 10.9922 66.8794 10.0742 67.5679 9.37598C68.2612 8.67285 69.167 8.32129 70.2852 8.32129C71.3057 8.32129 72.1724 8.62158 72.8853 9.22217C73.603 9.81787 73.9619 10.5332 73.9619 11.3682C73.9619 11.9004 73.8105 12.3691 73.5078 12.7744C73.2051 13.1797 72.7852 13.4702 72.248 13.646C72.917 13.7192 73.3955 13.9243 73.6836 14.2612C73.9766 14.5933 74.123 15.1133 74.123 15.8213V19H71.5156V16.4658C71.5156 15.9141 71.3984 15.5356 71.1641 15.3306C70.9297 15.1255 70.478 15.0229 69.8091 15.0229H69.5674V12.6719H69.9556C70.3755 12.6719 70.6929 12.5889 70.9077 12.4229C71.1226 12.2568 71.23 12.0103 71.23 11.6831C71.23 11.3999 71.1372 11.1655 70.9517 10.98C70.771 10.7944 70.5439 10.7017 70.2705 10.7017C69.9141 10.7017 69.6382 10.8286 69.4429 11.0825C69.2476 11.3364 69.1499 11.6953 69.1499 12.1592V18.9854H66.5352ZM86.0396 19H85.7686C84.8555 19 84.0571 18.9268 83.3735 18.7803C82.6899 18.6338 82.1138 18.4116 81.645 18.1138C80.8784 17.6206 80.2852 16.9956 79.8652 16.2388C79.4502 15.4819 79.2427 14.6519 79.2427 13.7485C79.2427 12.8452 79.4502 12.0176 79.8652 11.2656C80.2803 10.5137 80.8735 9.89111 81.645 9.39795C82.1138 9.1001 82.6899 8.87793 83.3735 8.73145C84.0571 8.58496 84.8555 8.51172 85.7686 8.51172H86.0396V10.8994C85.9712 10.8945 85.8979 10.8921 85.8198 10.8921C85.7466 10.8872 85.6392 10.8848 85.4976 10.8848C84.5796 10.8848 83.8496 11.019 83.3076 11.2876C82.7656 11.5562 82.3774 11.9712 82.1431 12.5327H86.0396V14.8765H82.0918C82.2676 15.4526 82.6436 15.8872 83.2197 16.1802C83.7959 16.4683 84.5723 16.6123 85.5488 16.6123C85.6807 16.6123 85.7808 16.6123 85.8491 16.6123C85.9224 16.6074 85.9858 16.605 86.0396 16.605V19ZM87.4385 19V10.123C87.4385 9.56152 87.5825 9.11719 87.8706 8.79004C88.1636 8.45801 88.5518 8.29199 89.0352 8.29199C89.4355 8.29199 89.7798 8.40674 90.0679 8.63623C90.356 8.86084 90.6758 9.29541 91.0273 9.93994L92.4043 12.4302C92.6924 12.9526 92.917 13.3921 93.0781 13.7485C93.2441 14.105 93.376 14.4346 93.4736 14.7373C93.415 14.0928 93.3687 13.5093 93.3345 12.9868C93.3052 12.4644 93.2905 12.064 93.2905 11.7856V8.51172H95.8101V17.7402C95.8101 18.165 95.688 18.5093 95.4438 18.7729C95.2046 19.0366 94.8872 19.1685 94.4917 19.1685C94.1548 19.1685 93.8667 19.0806 93.6274 18.9048C93.3931 18.729 93.1367 18.3896 92.8584 17.8867L90.8149 14.1953C90.771 14.1172 90.7051 13.9976 90.6172 13.8364C90.1631 13.021 89.8506 12.3618 89.6797 11.8589C89.7773 12.5571 89.8481 13.1943 89.8921 13.7705C89.9409 14.3418 89.9653 14.8789 89.9653 15.3818V19H87.4385ZM106.569 9.95459L104.812 11.8149C104.431 11.478 104.052 11.229 103.676 11.0679C103.305 10.9067 102.924 10.8262 102.534 10.8262C101.733 10.8262 101.059 11.1045 100.512 11.6611C99.9702 12.2178 99.6992 12.9087 99.6992 13.7339C99.6992 14.5396 99.9629 15.2134 100.49 15.7554C101.018 16.2974 101.669 16.5684 102.446 16.5684C102.993 16.5684 103.476 16.4146 103.896 16.1069C104.316 15.7993 104.626 15.3696 104.826 14.8179H102.248V12.4888H107.727V12.9282C107.727 13.6216 107.675 14.2393 107.573 14.7812C107.47 15.3184 107.312 15.8042 107.097 16.2388C106.652 17.1567 106.018 17.877 105.192 18.3994C104.372 18.9219 103.461 19.1831 102.46 19.1831C101.708 19.1831 101.003 19.0464 100.344 18.7729C99.6846 18.4995 99.0986 18.104 98.5859 17.5864C98.0781 17.0688 97.6875 16.4829 97.4141 15.8286C97.1455 15.1694 97.0112 14.4761 97.0112 13.7485C97.0112 13.021 97.1455 12.3325 97.4141 11.6831C97.6875 11.0288 98.083 10.4429 98.6006 9.92529C99.1133 9.40283 99.7065 9.00488 100.38 8.73145C101.054 8.45801 101.772 8.32129 102.534 8.32129C103.276 8.32129 103.981 8.45801 104.65 8.73145C105.324 9 105.964 9.40771 106.569 9.95459ZM108.994 19V8.51172H111.601V19H108.994ZM113.176 19V10.123C113.176 9.56152 113.32 9.11719 113.608 8.79004C113.901 8.45801 114.289 8.29199 114.772 8.29199C115.173 8.29199 115.517 8.40674 115.805 8.63623C116.093 8.86084 116.413 9.29541 116.765 9.93994L118.142 12.4302C118.43 12.9526 118.654 13.3921 118.815 13.7485C118.981 14.105 119.113 14.4346 119.211 14.7373C119.152 14.0928 119.106 13.5093 119.072 12.9868C119.042 12.4644 119.028 12.064 119.028 11.7856V8.51172H121.547V17.7402C121.547 18.165 121.425 18.5093 121.181 18.7729C120.942 19.0366 120.625 19.1685 120.229 19.1685C119.892 19.1685 119.604 19.0806 119.365 18.9048C119.13 18.729 118.874 18.3896 118.596 17.8867L116.552 14.1953C116.508 14.1172 116.442 13.9976 116.354 13.8364C115.9 13.021 115.588 12.3618 115.417 11.8589C115.515 12.5571 115.585 13.1943 115.629 13.7705C115.678 14.3418 115.703 14.8789 115.703 15.3818V19H113.176ZM129.531 19H129.26C128.347 19 127.548 18.9268 126.865 18.7803C126.181 18.6338 125.605 18.4116 125.136 18.1138C124.37 17.6206 123.776 16.9956 123.356 16.2388C122.941 15.4819 122.734 14.6519 122.734 13.7485C122.734 12.8452 122.941 12.0176 123.356 11.2656C123.771 10.5137 124.365 9.89111 125.136 9.39795C125.605 9.1001 126.181 8.87793 126.865 8.73145C127.548 8.58496 128.347 8.51172 129.26 8.51172H129.531V10.8994C129.462 10.8945 129.389 10.8921 129.311 10.8921C129.238 10.8872 129.13 10.8848 128.989 10.8848C128.071 10.8848 127.341 11.019 126.799 11.2876C126.257 11.5562 125.869 11.9712 125.634 12.5327H129.531V14.8765H125.583C125.759 15.4526 126.135 15.8872 126.711 16.1802C127.287 16.4683 128.063 16.6123 129.04 16.6123C129.172 16.6123 129.272 16.6123 129.34 16.6123C129.414 16.6074 129.477 16.605 129.531 16.605V19ZM137.382 19H137.111C136.198 19 135.4 18.9268 134.716 18.7803C134.033 18.6338 133.457 18.4116 132.988 18.1138C132.221 17.6206 131.628 16.9956 131.208 16.2388C130.793 15.4819 130.585 14.6519 130.585 13.7485C130.585 12.8452 130.793 12.0176 131.208 11.2656C131.623 10.5137 132.216 9.89111 132.988 9.39795C133.457 9.1001 134.033 8.87793 134.716 8.73145C135.4 8.58496 136.198 8.51172 137.111 8.51172H137.382V10.8994C137.314 10.8945 137.241 10.8921 137.163 10.8921C137.089 10.8872 136.982 10.8848 136.84 10.8848C135.922 10.8848 135.192 11.019 134.65 11.2876C134.108 11.5562 133.72 11.9712 133.486 12.5327H137.382V14.8765H133.435C133.61 15.4526 133.986 15.8872 134.562 16.1802C135.139 16.4683 135.915 16.6123 136.892 16.6123C137.023 16.6123 137.124 16.6123 137.192 16.6123C137.265 16.6074 137.329 16.605 137.382 16.605V19ZM138.708 18.9854V12.1299C138.708 10.9922 139.052 10.0742 139.741 9.37598C140.434 8.67285 141.34 8.32129 142.458 8.32129C143.479 8.32129 144.345 8.62158 145.058 9.22217C145.776 9.81787 146.135 10.5332 146.135 11.3682C146.135 11.9004 145.983 12.3691 145.681 12.7744C145.378 13.1797 144.958 13.4702 144.421 13.646C145.09 13.7192 145.568 13.9243 145.856 14.2612C146.149 14.5933 146.296 15.1133 146.296 15.8213V19H143.688V16.4658C143.688 15.9141 143.571 15.5356 143.337 15.3306C143.103 15.1255 142.651 15.0229 141.982 15.0229H141.74V12.6719H142.128C142.548 12.6719 142.866 12.5889 143.081 12.4229C143.295 12.2568 143.403 12.0103 143.403 11.6831C143.403 11.3999 143.31 11.1655 143.125 10.98C142.944 10.7944 142.717 10.7017 142.443 10.7017C142.087 10.7017 141.811 10.8286 141.616 11.0825C141.42 11.3364 141.323 11.6953 141.323 12.1592V18.9854H138.708ZM147.578 19V8.51172H150.185V19H147.578ZM151.76 19V10.123C151.76 9.56152 151.904 9.11719 152.192 8.79004C152.485 8.45801 152.873 8.29199 153.356 8.29199C153.757 8.29199 154.101 8.40674 154.389 8.63623C154.677 8.86084 154.997 9.29541 155.349 9.93994L156.726 12.4302C157.014 12.9526 157.238 13.3921 157.399 13.7485C157.565 14.105 157.697 14.4346 157.795 14.7373C157.736 14.0928 157.69 13.5093 157.656 12.9868C157.626 12.4644 157.612 12.064 157.612 11.7856V8.51172H160.131V17.7402C160.131 18.165 160.009 18.5093 159.765 18.7729C159.526 19.0366 159.208 19.1685 158.813 19.1685C158.476 19.1685 158.188 19.0806 157.949 18.9048C157.714 18.729 157.458 18.3896 157.18 17.8867L155.136 14.1953C155.092 14.1172 155.026 13.9976 154.938 13.8364C154.484 13.021 154.172 12.3618 154.001 11.8589C154.099 12.5571 154.169 13.1943 154.213 13.7705C154.262 14.3418 154.287 14.8789 154.287 15.3818V19H151.76ZM170.891 9.95459L169.133 11.8149C168.752 11.478 168.374 11.229 167.998 11.0679C167.626 10.9067 167.246 10.8262 166.855 10.8262C166.054 10.8262 165.38 11.1045 164.833 11.6611C164.292 12.2178 164.021 12.9087 164.021 13.7339C164.021 14.5396 164.284 15.2134 164.812 15.7554C165.339 16.2974 165.991 16.5684 166.767 16.5684C167.314 16.5684 167.797 16.4146 168.217 16.1069C168.637 15.7993 168.947 15.3696 169.147 14.8179H166.569V12.4888H172.048V12.9282C172.048 13.6216 171.997 14.2393 171.894 14.7812C171.792 15.3184 171.633 15.8042 171.418 16.2388C170.974 17.1567 170.339 17.877 169.514 18.3994C168.693 18.9219 167.783 19.1831 166.782 19.1831C166.03 19.1831 165.324 19.0464 164.665 18.7729C164.006 18.4995 163.42 18.104 162.907 17.5864C162.399 17.0688 162.009 16.4829 161.735 15.8286C161.467 15.1694 161.333 14.4761 161.333 13.7485C161.333 13.021 161.467 12.3325 161.735 11.6831C162.009 11.0288 162.404 10.4429 162.922 9.92529C163.435 9.40283 164.028 9.00488 164.702 8.73145C165.375 8.45801 166.093 8.32129 166.855 8.32129C167.597 8.32129 168.303 8.45801 168.972 8.73145C169.646 9 170.285 9.40771 170.891 9.95459Z" fill="white"/>
<rect x="23" y="23" width="150" height="2" fill="#FF0000"/>
</svg>
